<svg xmlns="http://www.w3.org/2000/svg" width="512" height="720" viewBox="0 0 512 720">
  <defs>
    <pattern id="dots" x="0" y="0" width="26" height="26" patternUnits="userSpaceOnUse">
      <circle cx="13" cy="13" r="1.4" fill="rgba(255,255,255,0.11)"/>
    </pattern>
    <clipPath id="upper-clip">
      <path d="M 28 0 L 484 0 Q 512 0 512 28 L 512 259 L 0 259 L 0 28 Q 0 0 28 0 Z"/>
    </clipPath>
    <clipPath id="card-clip">
      <rect width="512" height="720" rx="28"/>
    </clipPath>
  </defs>

  <rect width="512" height="720" rx="28" fill="#07070a"/>

  <path d="M 28 0 L 484 0 Q 512 0 512 28 L 512 259 L 0 259 L 0 28 Q 0 0 28 0 Z"
        fill="#16161e"/>

  <rect width="512" height="259" fill="url(#dots)" clip-path="url(#upper-clip)"/>

  <line x1="0" y1="259" x2="512" y2="259" stroke="#2a2a36" stroke-width="2"/>

  <rect x="1.5" y="1.5" width="509" height="717" rx="27"
        fill="none" stroke="#28282f" stroke-width="3"/>

  <rect x="224" y="17" width="64" height="16" rx="8" fill="#030305"/>
  <rect x="235" y="21" width="42" height="9" rx="4" fill="#0e0e16"/>

  <text
    x="82" y="151"
    font-family="'Kohinoor Devanagari','Noto Sans Devanagari','Devanagari MT',sans-serif"
    font-size="77"
    font-weight="600"
    fill="#ffffff"
    text-anchor="start">कृतेश</text>

  <text
    x="82" y="203"
    font-family="'Courier New', Courier, monospace"
    font-size="21"
    font-weight="400"
    fill="rgba(255,255,255,0.65)"
    text-anchor="start">Building AI-native products,</text>
  <text
    x="82" y="231"
    font-family="'Courier New', Courier, monospace"
    font-size="21"
    font-weight="400"
    fill="rgba(255,255,255,0.65)"
    text-anchor="start">that actually scale.</text>

  <circle cx="256" cy="489.5" r="168" fill="#0c0c13" stroke="#1e1e28" stroke-width="8"/>

  <text
    x="256" y="489.5"
    font-family="Georgia,'Times New Roman',serif"
    font-size="102"
    font-weight="400"
    fill="#3d4047"
    text-anchor="middle"
    dominant-baseline="central">K</text>
</svg>
